<?xml version="1.0" encoding="UTF-8"?>
<svg width="40px" height="40px" viewBox="0 0 40 40" version="1.1" xmlns="http://www.w3.org/2000/svg" xmlns:xlink="http://www.w3.org/1999/xlink">
    <!-- Generator: Sketch 52 (66869) - http://www.bohemiancoding.com/sketch -->
    <title>微博</title>
    <desc>Created with Sketch.</desc>
    <g id="Page-1" stroke="none" stroke-width="1" fill="none" fill-rule="evenodd">
        <g id="Artboard" transform="translate(-118.000000, -39.000000)" fill="#F25768">
            <g id="微博" transform="translate(118.000000, 39.000000)">
                <path d="M20,39 C9.50658975,39 1,30.4934102 1,20 C1,9.50658975 9.50658975,1 20,1 C30.4934102,1 39,9.50658975 39,20 C39,30.4934102 30.4934102,39 20,39 Z M20.3648474,17.187849 C20.7000629,15.6908432 19.7812476,12.2307557 14.8523201,15.1096887 C9.92339267,17.9886216 8.36300795,22.6006005 8.50927491,24.503753 C8.65554187,26.4069054 10.9004414,30.3502256 18.4847894,30.3502256 C26.0691375,30.3502256 28.5451582,25.5401985 28.4048838,23.4586066 C28.4048838,21.3161045 25.9924568,20.2718157 25.4915292,20.2718159 C26.5588138,17.3719262 24.3591828,15.6908432 20.3648474,17.187849 Z M18.5,29.5 C14.9101491,29.5 12,27.4852814 12,25 C12,22.5147186 14.9101491,20.5 18.5,20.5 C22.0898509,20.5 25,22.5147186 25,25 C25,27.4852814 22.0898509,29.5 18.5,29.5 Z M18.5,27.5 C19.8807119,27.5 21,26.3807119 21,25 C21,23.6192881 19.8807119,22.5 18.5,22.5 C17.1192881,22.5 16,23.6192881 16,25 C16,26.3807119 17.1192881,27.5 18.5,27.5 Z M32.0867347,15.797619 C32.0867347,11.9042834 28.9128595,8.75 25,8.75 C24.5857864,8.75 24.25,9.08578644 24.25,9.5 C24.25,9.91421356 24.5857864,10.25 25,10.25 C28.0865044,10.25 30.5867347,12.7347968 30.5867347,15.797619 C30.5867347,16.2118326 30.9225211,16.547619 31.3367347,16.547619 C31.7509483,16.547619 32.0867347,16.2118326 32.0867347,15.797619 Z M27.6785714,15.9166667 C27.6785714,14.4428642 26.4782981,13.25 25,13.25 C24.5857864,13.25 24.25,13.5857864 24.25,14 C24.25,14.4142136 24.5857864,14.75 25,14.75 C25.651943,14.75 26.1785714,15.2733776 26.1785714,15.9166667 C26.1785714,16.3308802 26.5143579,16.6666667 26.9285714,16.6666667 C27.342785,16.6666667 27.6785714,16.3308802 27.6785714,15.9166667 Z" id="Combined-Shape"></path>
            </g>
        </g>
    </g>
</svg>
